<svg xmlns="http://www.w3.org/2000/svg" width="553.014" height="466.723" viewBox="0 0 553.014 466.723">
      <style type="text/css">
          .move{
              animation: 40s move infinite linear;
              stroke-dashoffset: 0;
              stroke-width : 2px;
            }
              @keyframes move{
                to {
                stroke-dashoffset: 1000;
              }
            }
          </style>
            <g id="About_SVG" data-name="About SVG" transform="translate(-1037.986 -1205.606)">
              <g id="Group_8295" data-name="Group 8295" transform="translate(981.701 1126.02)">
                <path class="move" id="Path_9367" data-name="Path 9367" d="M369.724,264.349H430c8.938,0,16.181,8.369,16.181,18.7V348.5c0,10.328-7.243,18.7-16.181,18.7H348.087c-8.938,0-16.194,8.368-16.194,18.7V426.37" fill="none" stroke="#2d3079" stroke-linejoin="round" stroke-width="2" stroke-dasharray="9"/>
                <path class="move" id="Path_9368" data-name="Path 9368" d="M252.247,365.076H192c-8.938,0-16.181-8.382-16.181-18.71V280.927c0-10.328,7.243-18.7,16.181-18.7H273.91c8.938,0,16.181-8.368,16.181-18.7V203.042" fill="none" stroke="#2d3079" stroke-linejoin="round" stroke-width="2" stroke-dasharray="9"/>
              </g>
              <g id="Group_8338" data-name="Group 8338" transform="translate(981.701 1126.02)">
                <g id="Group_8297" data-name="Group 8297" opacity="0.28">
                  <path id="Path_9388" data-name="Path 9388" d="M493.159,227.671a.781.781,0,0,1,.569-.728l3.761-.569a10.593,10.593,0,0,1,.795-1.854c-.689-.993-1.43-1.894-2.172-2.807a.768.768,0,0,1-.2-.5.649.649,0,0,1,.172-.463c.49-.649,3.231-3.641,3.972-3.641a.98.98,0,0,1,.516.185l2.807,2.185a12.7,12.7,0,0,1,1.854-.768,24.55,24.55,0,0,1,.583-3.774.742.742,0,0,1,.728-.569h4.515a.715.715,0,0,1,.728.609l.569,3.734a11.057,11.057,0,0,1,1.827.755l2.873-2.172a.7.7,0,0,1,.5-.185.688.688,0,0,1,.5.225,24.027,24.027,0,0,1,3.35,3.416.715.715,0,0,1,.146.463.781.781,0,0,1-.159.463c-.689.94-1.443,1.827-2.132,2.781a11.525,11.525,0,0,1,.834,2.013l3.707.556a.741.741,0,0,1,.6.728v4.5a.821.821,0,0,1-.543.742l-3.787.569a10.006,10.006,0,0,1-.794,1.867c.7.967,1.43,1.893,2.172,2.794a.715.715,0,0,1,.212.49.728.728,0,0,1-.185.463c-.49.675-3.231,3.641-3.972,3.641a.9.9,0,0,1-.53-.2l-2.807-2.172a11.748,11.748,0,0,1-1.841.768,26.018,26.018,0,0,1-.6,3.774.728.728,0,0,1-.728.569h-4.515a.728.728,0,0,1-.675-.6l-.569-3.734a12.078,12.078,0,0,1-1.827-.755l-2.9,2.158a.635.635,0,0,1-.477.185.834.834,0,0,1-.516-.2,25.812,25.812,0,0,1-3.35-3.456.662.662,0,0,1-.146-.45.821.821,0,0,1,.159-.463c.689-.927,1.443-1.827,2.132-2.781a10.777,10.777,0,0,1-.821-2l-3.721-.556a.768.768,0,0,1-.6-.741Zm15.611,7.495a5.2,5.2,0,1,0-5.2-5.2A5.2,5.2,0,0,0,508.771,235.166Z" fill="none" stroke="#738ce4" stroke-linecap="round" stroke-linejoin="round" stroke-width="2"/>
                </g>
                <g id="Group_8298" data-name="Group 8298" opacity="0.14">
                  <path id="Path_9389" data-name="Path 9389" d="M592.257,315.05a.437.437,0,0,1,.3-.41l2.052-.3a7.678,7.678,0,0,1,.437-1.006c-.371-.543-.781-1.033-1.192-1.536a.424.424,0,0,1-.106-.278.45.45,0,0,1,.093-.252c.278-.357,1.774-1.986,2.145-1.986a.583.583,0,0,1,.291.093l1.536,1.2a5.586,5.586,0,0,1,1.006-.424,15.57,15.57,0,0,1,.318-2.066.424.424,0,0,1,.41-.3H602a.4.4,0,0,1,.411.331l.3,2.039a5.941,5.941,0,0,1,1.006.41l1.563-1.192a.41.41,0,0,1,.278-.093.4.4,0,0,1,.278.119,13.534,13.534,0,0,1,1.827,1.867.436.436,0,0,1,.079.252.384.384,0,0,1-.093.252c-.371.516-.781,1.006-1.165,1.523a7.178,7.178,0,0,1,.463,1.1l2.026.3a.4.4,0,0,1,.318.4v2.463a.424.424,0,0,1-.291.4l-2.066.318a6.951,6.951,0,0,1-.437,1.02c.384.53.781,1.033,1.192,1.523a.424.424,0,0,1,.106.278.451.451,0,0,1-.093.252c-.278.358-1.774,1.986-2.145,1.986a.437.437,0,0,1-.291-.119l-1.47-1.178a8.486,8.486,0,0,1-1.006.424,15.9,15.9,0,0,1-.318,2.066.424.424,0,0,1-.411.3h-2.45a.41.41,0,0,1-.41-.331l-.3-2.039a9.434,9.434,0,0,1-1.006-.411l-1.576,1.179a.318.318,0,0,1-.265.106.4.4,0,0,1-.278-.119,14.42,14.42,0,0,1-1.827-1.88.4.4,0,0,1-.079-.238.464.464,0,0,1,.093-.265c.371-.5.781-.993,1.165-1.523a6.526,6.526,0,0,1-.464-1.086l-2.026-.3a.41.41,0,0,1-.318-.4Zm8.514,4.092a2.834,2.834,0,1,1,0-.026Z" fill="#738ce4"/>
                </g>
                <g id="Group_8301" data-name="Group 8301">
                  <g id="Group_8300" data-name="Group 8300">
                    <g id="Group_8299" data-name="Group 8299">
                      <path id="Path_9390" data-name="Path 9390" d="M553.725,309.343a46.636,46.636,0,1,1-48.172-45.02A46.636,46.636,0,0,1,553.725,309.343Z" fill="#d9ddff"/>
                      <path id="Path_9391" data-name="Path 9391" d="M553.725,309.343a46.636,46.636,0,1,1-48.172-45.02A46.636,46.636,0,0,1,553.725,309.343Z" fill="none" stroke="#2d3079" stroke-miterlimit="10" stroke-width="2"/>
                    </g>
                    <path id="Path_9392" data-name="Path 9392" d="M529.559,310.151c.847,25.741-8.5,46.954-20.895,47.364s-23.146-20.127-24.033-45.868,8.5-46.954,20.882-47.364S528.7,284.41,529.559,310.151Z" fill="none" stroke="#2d3079" stroke-linecap="round" stroke-linejoin="round" stroke-width="2"/>
                    <path id="Path_9393" data-name="Path 9393" d="M472.052,341.626c8.382-5.3,21.186-8.938,35.752-9.428s27.608,2.291,36.321,7.018" fill="none" stroke="#2d3079" stroke-linecap="round" stroke-linejoin="round" stroke-width="2"/>
                    <path id="Path_9394" data-name="Path 9394" d="M540.444,278.279a83.937,83.937,0,0,1-34.189,8.858c-12.871.424-26.483-2.224-35.05-6" fill="none" stroke="#2d3079" stroke-linecap="round" stroke-linejoin="round" stroke-width="2"/>
                    <line id="Line_127" data-name="Line 127" y1="3.085" x2="92.649" transform="translate(460.784 309.357)" fill="none" stroke="#2d3079" stroke-linecap="round" stroke-linejoin="round" stroke-width="2"/>
                  </g>
                  <line id="Line_128" data-name="Line 128" y2="93.232" transform="translate(505.553 264.283)" fill="none" stroke="#2d3079" stroke-linecap="round" stroke-linejoin="round" stroke-width="2"/>
                </g>
                <g id="Group_8302" data-name="Group 8302">
                  <path id="Path_9395" data-name="Path 9395" d="M134.068,310.628a38.4,38.4,0,1,1-37.076-39.6,38.4,38.4,0,0,1,37.076,39.6Z" fill="#d9ddff" stroke="#2d3079" stroke-miterlimit="10" stroke-width="2"/>
                  <path id="Path_9396" data-name="Path 9396" d="M75.065,306.285l19.73,16.141,22.126-25.463" fill="none" stroke="#2d3079" stroke-linecap="round" stroke-linejoin="round" stroke-width="2"/>
                </g>
                <g id="Group_8303" data-name="Group 8303" opacity="0.15">
                  <path id="Path_9397" data-name="Path 9397" d="M425.324,481.811a7.534,7.534,0,1,1-2.2-5.336,7.548,7.548,0,0,1,2.2,5.336Z" fill="none" stroke="#738ed6" stroke-linecap="round" stroke-linejoin="round" stroke-width="2"/>
                </g>
                <g id="Group_8304" data-name="Group 8304" opacity="0.28">
                  <path id="Path_9398" data-name="Path 9398" d="M457.5,226.148a7.548,7.548,0,1,1-7.548-7.548A7.548,7.548,0,0,1,457.5,226.148Z" fill="none" stroke="#738ed6" stroke-linecap="round" stroke-linejoin="round" stroke-width="2"/>
                  <text id="_" data-name="$" transform="translate(447.397 229.511)" fill="#738ed6" font-size="9" font-family="OpenSans-Bold, Open Sans" font-weight="700"><tspan x="0" y="0">$</tspan></text>
                </g>
                <g id="Group_8305" data-name="Group 8305" opacity="0.28">
                  <path id="Path_9399" data-name="Path 9399" d="M159.16,253.107a7.534,7.534,0,1,1-2.2-5.336,7.548,7.548,0,0,1,2.2,5.336Z" fill="none" stroke="#738ed6" stroke-linecap="round" stroke-linejoin="round" stroke-width="2"/>
                </g>
                <g id="Group_8306" data-name="Group 8306" opacity="0.19">
                  <path id="Path_9400" data-name="Path 9400" d="M169.833,474.264a7.548,7.548,0,1,1-7.548-7.534A7.548,7.548,0,0,1,169.833,474.264Z" fill="none" stroke="#738ed6" stroke-linecap="round" stroke-linejoin="round" stroke-width="2"/>
                </g>
                <g id="Group_8307" data-name="Group 8307" opacity="0.15">
                  <path id="Path_9401" data-name="Path 9401" d="M402.258,493.464a8.051,8.051,0,0,0-8.051,7.945h6.051l-.238-.225a1.748,1.748,0,0,1-.45-1.231,1.576,1.576,0,0,1,.609-1.324,3.138,3.138,0,0,1,1.721-.622v-.821h.742v.808a6.025,6.025,0,0,1,2.238.49l-.516,1.324a5.958,5.958,0,0,0-1.721-.424v1.6a10.181,10.181,0,0,1,1.02.437h6.621a8.051,8.051,0,0,0-8.024-7.958Z" fill="none"/>
                  <path id="Path_9402" data-name="Path 9402" d="M401.211,500a.5.5,0,0,0,.172.4,1.959,1.959,0,0,0,.53.318V499.4C401.437,499.515,401.211,499.7,401.211,500Z" fill="none"/>
                  <path id="Path_9403" data-name="Path 9403" d="M403.37,503.289a.463.463,0,0,0-.185-.384,2.17,2.17,0,0,0-.543-.318v1.324C403.131,503.845,403.37,503.633,403.37,503.289Z" fill="none"/>
                  <path id="Path_9404" data-name="Path 9404" d="M402.258,493.464a8.051,8.051,0,0,1,8.051,7.945h2.529a10.593,10.593,0,1,0-21.186,0h2.529a8.051,8.051,0,0,1,8.077-7.945Z" fill="#738ed6"/>
                </g>
                <g id="Group_8308" data-name="Group 8308" opacity="0.15">
                  <path id="Path_9405" data-name="Path 9405" d="M430.938,525.163v6.21a5.2,5.2,0,0,1-5.217,5.217H390.1a5.2,5.2,0,0,1-5.217-5.217V508.625a5.2,5.2,0,0,1,5.217-5.217h35.619a5.2,5.2,0,0,1,5.217,5.217v5.138" fill="none" stroke="#738ed6" stroke-miterlimit="10" stroke-width="2"/>
                  <rect id="Rectangle_7678" data-name="Rectangle 7678" width="15.85" height="9.785" rx="2.979" transform="translate(419.749 514.967)" fill="none" stroke="#738ed6" stroke-miterlimit="10" stroke-width="2"/>
                  <line id="Line_129" data-name="Line 129" x2="46.053" transform="translate(384.885 509.83)" fill="none" stroke="#738ed6" stroke-miterlimit="10" stroke-width="2"/>
                </g>
                <g id="Group_8312" data-name="Group 8312" opacity="0.14">
                  <g id="Group_8311" data-name="Group 8311">
                    <g id="Group_8309" data-name="Group 8309">
                      <rect id="Rectangle_7679" data-name="Rectangle 7679" width="35.315" height="24.708" rx="1.139" transform="translate(204.856 154.248)" fill="none" stroke="#738ed6" stroke-miterlimit="10" stroke-width="2"/>
                      <path id="Path_9406" data-name="Path 9406" d="M237.8,154.394a15.453,15.453,0,0,0-30.892,0" fill="none" stroke="#738ed6" stroke-miterlimit="10" stroke-width="2"/>
                    </g>
                    <g id="Group_8310" data-name="Group 8310">
                      <rect id="Rectangle_7680" data-name="Rectangle 7680" width="2.158" height="4.767" transform="translate(221.434 166.019)" fill="#738ed6"/>
                      <path id="Path_9407" data-name="Path 9407" d="M220.176,164.973a2.33,2.33,0,1,0,.678-1.656A2.33,2.33,0,0,0,220.176,164.973Z" fill="#738ed6"/>
                    </g>
                  </g>
                </g>
                <g id="Group_8316" data-name="Group 8316">
                  <g id="Group_8313" data-name="Group 8313">
                    <path id="Path_9408" data-name="Path 9408" d="M321.764,80.587H285.085c-5.018,0-9.084,3.668-9.084,8.183v88.8c0,4.529,4.065,8.2,9.084,8.2h36.678c5.018,0,9.084-3.668,9.084-8.2V88.717C330.847,84.254,326.782,80.587,321.764,80.587Z" fill="#d9ddff" stroke="#2d3079" stroke-miterlimit="10" stroke-width="2"/>
                    <path id="Path_9409" data-name="Path 9409" d="M308.3,89.193a.993.993,0,0,1-1.02.927H299.4a.98.98,0,0,1-1.02-.927h0a.967.967,0,0,1,1.02-.927h7.879a.98.98,0,0,1,1.02.927Z" fill="#2d3079"/>
                    <path id="Path_9410" data-name="Path 9410" d="M304.55,84.943a1.112,1.112,0,1,1-1.1-.993A1.059,1.059,0,0,1,304.55,84.943Z" fill="#2d3079"/>
                    <path id="Path_9411" data-name="Path 9411" d="M296.605,89.193a1.112,1.112,0,1,1-1.1-1.006,1.046,1.046,0,0,1,1.1,1.006Z" fill="#2d3079"/>
                    <path id="Path_9412" data-name="Path 9412" d="M308.178,177.619a4.277,4.277,0,1,1-4.25-3.84A4.052,4.052,0,0,1,308.178,177.619Z" fill="#b9ddf3" stroke="#2d3079" stroke-miterlimit="10" stroke-width="2"/>
                  </g>
                  <rect id="Rectangle_7681" data-name="Rectangle 7681" width="42.491" height="71.093" transform="translate(282.093 96.926)" fill="#fff" stroke="#2d3079" stroke-miterlimit="10" stroke-width="2"/>
                  <g id="Group_8315" data-name="Group 8315">
                    <path id="Path_9413" data-name="Path 9413" d="M300.578,108.579a2.556,2.556,0,0,1,2.767-2.251h44.027a2.556,2.556,0,0,1,2.781,2.251v26.708a2.556,2.556,0,0,1-2.767,2.238H303.358a2.542,2.542,0,0,1-2.767-2.238Z" fill="#d9ddff" stroke="#2d3079" stroke-miterlimit="10" stroke-width="2"/>
                    <g id="Group_8314" data-name="Group 8314">
                      <path id="Path_9414" data-name="Path 9414" d="M311.488,127.527a3.972,3.972,0,1,1,3.893,3.443,3.694,3.694,0,0,1-3.893-3.443Z" fill="#e8eaff"/>
                      <path id="Path_9415" data-name="Path 9415" d="M306.245,127.527a3.972,3.972,0,1,1,3.893,3.443,3.694,3.694,0,0,1-3.893-3.443Z" fill="#2d3079"/>
                    </g>
                    <rect id="Rectangle_7682" data-name="Rectangle 7682" width="37.95" height="5.23" transform="translate(307.079 112.352)" fill="#fff"/>
                    <rect id="Rectangle_7683" data-name="Rectangle 7683" width="18.869" height="5.376" transform="translate(325.378 125.594)" fill="#2d3079"/>
                  </g>
                </g>
                <g id="Group_8317" data-name="Group 8317" opacity="0.28">
                  <path id="Path_9416" data-name="Path 9416" d="M86.068,233.855a1.324,1.324,0,0,1-1.324,1.457H80.534a1.39,1.39,0,0,1-1.324-1.457V211.715a1.324,1.324,0,0,1,1.324-1.457h4.211a1.324,1.324,0,0,1,1.324,1.457Z" fill="none" stroke="#738ed6" stroke-linecap="round" stroke-linejoin="round" stroke-width="2"/>
                  <path id="Path_9417" data-name="Path 9417" d="M98.7,234.371c0,.53-.583.967-1.324.967H93.206c-.715,0-1.324-.437-1.324-.967V219.633c0-.53.569-.967,1.324-.967h4.211c.7,0,1.324.437,1.324.967Z" fill="none" stroke="#738ed6" stroke-linecap="round" stroke-linejoin="round" stroke-width="2"/>
                  <path id="Path_9418" data-name="Path 9418" d="M111.651,234.768c0,.291-.583.543-1.324.543h-4.171c-.715,0-1.324-.252-1.324-.543v-8.09c0-.3.569-.53,1.324-.53h4.211c.7,0,1.324.225,1.324.53Z" fill="none" stroke="#738ed6" stroke-linecap="round" stroke-linejoin="round" stroke-width="2"/>
                  <line id="Line_130" data-name="Line 130" x2="50.079" transform="translate(70.96 235.311)" fill="none" stroke="#738ed6" stroke-linecap="round" stroke-linejoin="round" stroke-width="2"/>
                </g>
                <g id="Group_8318" data-name="Group 8318" opacity="0.36">
                  <rect id="Rectangle_7684" data-name="Rectangle 7684" width="50.052" height="31.038" rx="4.012" transform="translate(406.521 397.146)" fill="none" stroke="#738ed6" stroke-linecap="round" stroke-linejoin="round" stroke-width="2" opacity="0.32"/>
                  <rect id="Rectangle_7685" data-name="Rectangle 7685" width="16.737" height="6.449" transform="translate(433.216 415.975)" fill="none" stroke="#738ed6" stroke-linecap="round" stroke-linejoin="round" stroke-width="2" opacity="0.32"/>
                  <rect id="Rectangle_7686" data-name="Rectangle 7686" width="2.026" height="4.82" transform="translate(411.751 417.088)" fill="none" stroke="#738ed6" stroke-linecap="round" stroke-linejoin="round" stroke-width="2" opacity="0.32"/>
                  <rect id="Rectangle_7687" data-name="Rectangle 7687" width="2.026" height="4.82" transform="translate(415.062 417.088)" fill="none" stroke="#738ed6" stroke-linecap="round" stroke-linejoin="round" stroke-width="2" opacity="0.32"/>
                  <rect id="Rectangle_7688" data-name="Rectangle 7688" width="2.026" height="4.82" transform="translate(418.372 417.088)" fill="none" stroke="#738ed6" stroke-linecap="round" stroke-linejoin="round" stroke-width="2" opacity="0.32"/>
                </g>
                <g id="Group_8319" data-name="Group 8319" opacity="0.19">
                  <path id="Path_9419" data-name="Path 9419" d="M170.137,518.092a14.3,14.3,0,1,1-14.407-14.181A14.3,14.3,0,0,1,170.137,518.092Z" fill="none" stroke="#738ed6" stroke-linecap="round" stroke-linejoin="round" stroke-width="2"/>
                </g>
                <g id="Group_8320" data-name="Group 8320" opacity="0.15">
                  <circle id="Ellipse_2485" data-name="Ellipse 2485" cx="3.602" cy="3.602" r="3.602" transform="translate(529.069 510.068)" fill="none" stroke="#738ed6" stroke-linecap="round" stroke-linejoin="round" stroke-width="2"/>
                  <path id="Path_9420" data-name="Path 9420" d="M517.735,513.67a3.6,3.6,0,1,1-3.6-3.588,3.6,3.6,0,0,1,3.6,3.588Z" fill="none" stroke="#738ed6" stroke-linecap="round" stroke-linejoin="round" stroke-width="2"/>
                  <path id="Path_9421" data-name="Path 9421" d="M509.552,485.585H538.6l-7.349,16.936H514.133Z" fill="none" stroke="#738ed6" stroke-linecap="round" stroke-linejoin="round" stroke-width="2"/>
                  <path id="Path_9422" data-name="Path 9422" d="M503.421,483.692h5.164l.967,1.893" fill="none" stroke="#738ed6" stroke-linecap="round" stroke-linejoin="round" stroke-width="2"/>
                  <path id="Path_9423" data-name="Path 9423" d="M514.133,502.521s-3.562,1.523-3.562,3.721a2.423,2.423,0,0,0,1.92,2.648H535.28" fill="none" stroke="#738ed6" stroke-linecap="round" stroke-linejoin="round" stroke-width="2"/>
                </g>
                <path id="Path_9424" data-name="Path 9424" d="M465.842,492.1a6.621,6.621,0,1,1-6.621-6.621A6.621,6.621,0,0,1,465.842,492.1Z" fill="none" stroke="#738ed6" stroke-linecap="round" stroke-linejoin="round" stroke-width="2" opacity="0.15"/>
                <path id="Path_9425" data-name="Path 9425" d="M510,168.019a4.171,4.171,0,1,1-4.171-4.171A4.171,4.171,0,0,1,510,168.019Z" fill="none" stroke="#738ed6" stroke-linecap="round" stroke-linejoin="round" stroke-width="2" opacity="0.14"/>
                <path id="Path_9426" data-name="Path 9426" d="M169.4,108.327a4.171,4.171,0,1,1-4.171-4.171,4.171,4.171,0,0,1,4.171,4.171Z" fill="none" stroke="#738ed6" stroke-linecap="round" stroke-linejoin="round" stroke-width="2" opacity="0.14"/>
                <g id="Group_8321" data-name="Group 8321" opacity="0.14">
                  <line id="Line_131" data-name="Line 131" y2="11.838" transform="translate(231.948 100.833)" fill="none" stroke="#738ed6" stroke-linecap="round" stroke-linejoin="round" stroke-width="2"/>
                  <line id="Line_132" data-name="Line 132" x1="11.838" transform="translate(226.029 106.751)" fill="none" stroke="#738ed6" stroke-linecap="round" stroke-linejoin="round" stroke-width="2"/>
                </g>
                <g id="Group_8322" data-name="Group 8322" opacity="0.14">
                  <line id="Line_133" data-name="Line 133" y2="9.865" transform="translate(550.613 149.958)" fill="none" stroke="#738ed6" stroke-linecap="round" stroke-linejoin="round" stroke-width="2"/>
                  <line id="Line_134" data-name="Line 134" x1="9.878" transform="translate(545.674 154.883)" fill="none" stroke="#738ed6" stroke-linecap="round" stroke-linejoin="round" stroke-width="2"/>
                </g>
                <g id="Group_8323" data-name="Group 8323" opacity="0.14">
                  <line id="Line_135" data-name="Line 135" y1="13.162" x2="0.649" transform="translate(451.462 88.28)" fill="none" stroke="#738ed6" stroke-linecap="round" stroke-linejoin="round" stroke-width="2"/>
                  <line id="Line_136" data-name="Line 136" x2="13.175" y2="0.662" transform="translate(445.199 94.53)" fill="none" stroke="#738ed6" stroke-linecap="round" stroke-linejoin="round" stroke-width="2"/>
                </g>
                <g id="Group_8324" data-name="Group 8324" opacity="0.28">
                  <line id="Line_137" data-name="Line 137" y1="13.162" x2="0.649" transform="translate(343.93 220.918)" fill="none" stroke="#738ed6" stroke-linecap="round" stroke-linejoin="round" stroke-width="2"/>
                  <line id="Line_138" data-name="Line 138" x2="13.175" y2="0.649" transform="translate(337.666 227.168)" fill="none" stroke="#738ed6" stroke-linecap="round" stroke-linejoin="round" stroke-width="2"/>
                </g>
                <g id="Group_8325" data-name="Group 8325" opacity="0.14">
                  <path id="Path_9427" data-name="Path 9427" d="M376.5,92.689a28.072,28.072,0,0,1,39.631,2.278" fill="none" stroke="#738ed6" stroke-linecap="round" stroke-linejoin="round" stroke-width="2"/>
                  <path id="Path_9428" data-name="Path 9428" d="M383.521,102.832a16.711,16.711,0,0,1,23.6,1.324" fill="none" stroke="#738ed6" stroke-linecap="round" stroke-linejoin="round" stroke-width="2"/>
                  <path id="Path_9429" data-name="Path 9429" d="M388.685,107.559a9.362,9.362,0,0,1,13.241.768" fill="none" stroke="#738ed6" stroke-linecap="round" stroke-linejoin="round" stroke-width="2"/>
                  <path id="Path_9430" data-name="Path 9430" d="M379.549,97.827a23.08,23.08,0,0,1,32.6,1.867" fill="none" stroke="#738ed6" stroke-linecap="round" stroke-linejoin="round" stroke-width="2"/>
                </g>
                <g id="Group_8326" data-name="Group 8326" opacity="0.19">
                  <path id="Path_9431" data-name="Path 9431" d="M240.449,535.174a28.058,28.058,0,0,1-27.039-29.051" fill="none" stroke="#738ed6" stroke-linecap="round" stroke-linejoin="round" stroke-width="2"/>
                  <path id="Path_9432" data-name="Path 9432" d="M242.422,523.031a16.711,16.711,0,0,1-16.088-17.306" fill="none" stroke="#738ed6" stroke-linecap="round" stroke-linejoin="round" stroke-width="2"/>
                  <path id="Path_9433" data-name="Path 9433" d="M241.985,515.987a9.375,9.375,0,0,1-9.044-9.706" fill="none" stroke="#738ed6" stroke-linecap="round" stroke-linejoin="round" stroke-width="2"/>
                  <path id="Path_9434" data-name="Path 9434" d="M241.826,529.348a23.093,23.093,0,0,1-22.245-23.914" fill="none" stroke="#738ed6" stroke-linecap="round" stroke-linejoin="round" stroke-width="2"/>
                </g>
                <g id="Group_8328" data-name="Group 8328" opacity="0.28">
                  <path id="Path_9435" data-name="Path 9435" d="M393.9,197.3a6.051,6.051,0,1,1-1.777,4.284A6.065,6.065,0,0,1,393.9,197.3Z" fill="none" stroke="#738ed6" stroke-linecap="round" stroke-linejoin="round" stroke-width="2"/>
                  <g id="Group_8327" data-name="Group 8327">
                    <path id="Path_9436" data-name="Path 9436" d="M383.243,183.127l-4.224,4.237a7.812,7.812,0,0,1-.424,9.269l24.046,23.914a7.786,7.786,0,0,1,10.143-.079l4.052-4.078a7.8,7.8,0,0,1,0-10.143L392.79,182.412A7.8,7.8,0,0,1,383.243,183.127Z" fill="none" stroke="#738ed6" stroke-linecap="round" stroke-linejoin="round" stroke-width="2"/>
                    <path id="Path_9437" data-name="Path 9437" d="M379.019,187.364l-4.383,4.409a.7.7,0,0,0,0,.993l3.972,3.972a7.812,7.812,0,0,0,.411-9.375Z" fill="none" stroke="#738ed6" stroke-linecap="round" stroke-linejoin="round" stroke-width="2"/>
                    <path id="Path_9438" data-name="Path 9438" d="M387.851,178.479l-4.608,4.648a7.8,7.8,0,0,0,9.56-.715l-3.972-3.972A.7.7,0,0,0,387.851,178.479Z" fill="none" stroke="#738ed6" stroke-linecap="round" stroke-linejoin="round" stroke-width="2"/>
                    <path id="Path_9439" data-name="Path 9439" d="M402.641,220.6l4.581,4.529a.7.7,0,0,0,.993,0l4.568-4.608a7.786,7.786,0,0,0-10.143.079Z" fill="none" stroke="#738ed6" stroke-linecap="round" stroke-linejoin="round" stroke-width="2"/>
                    <path id="Path_9440" data-name="Path 9440" d="M416.836,216.442l4.581-4.608a.7.7,0,0,0,0-.993l-4.568-4.542a7.8,7.8,0,0,0-.013,10.143Z" fill="none" stroke="#738ed6" stroke-linecap="round" stroke-linejoin="round" stroke-width="2"/>
                  </g>
                </g>
                <g id="Group_8331" data-name="Group 8331" opacity="0.19">
                  <g id="Group_8329" data-name="Group 8329">
                    <rect id="Rectangle_7689" data-name="Rectangle 7689" width="35.315" height="24.708" rx="1.139" transform="translate(100.925 439.36)" fill="none" stroke="#738ed6" stroke-linecap="round" stroke-linejoin="round" stroke-width="2"/>
                    <path id="Path_9441" data-name="Path 9441" d="M103.282,439.519a15.439,15.439,0,0,1,30.879,0" fill="none" stroke="#738ed6" stroke-linecap="round" stroke-linejoin="round" stroke-width="2"/>
                  </g>
                  <g id="Group_8330" data-name="Group 8330">
                    <rect id="Rectangle_7690" data-name="Rectangle 7690" width="2.158" height="4.767" transform="translate(117.503 448.761)" fill="#738ed6"/>
                    <path id="Path_9442" data-name="Path 9442" d="M120.92,446.987a2.331,2.331,0,1,1-.678-1.656A2.344,2.344,0,0,1,120.92,446.987Z" fill="#738ed6"/>
                  </g>
                </g>
                <line id="Line_139" data-name="Line 139" x1="29.409" transform="translate(183.392 217.753)" fill="none" stroke="#738ed6" stroke-linecap="round" stroke-linejoin="round" stroke-width="2" opacity="0.28"/>
                <line id="Line_140" data-name="Line 140" x1="18.631" transform="translate(219.686 217.753)" fill="none" stroke="#738ed6" stroke-linecap="round" stroke-linejoin="round" stroke-width="2" opacity="0.28"/>
                <line id="Line_141" data-name="Line 141" x1="43.074" transform="translate(165.225 227.499)" fill="none" stroke="#738ed6" stroke-linecap="round" stroke-linejoin="round" stroke-width="2" opacity="0.28"/>
                <line id="Line_146" data-name="Line 146" x1="29.409" transform="translate(476.237 447.225)" fill="none" stroke="#738ed6" stroke-linecap="round" stroke-linejoin="round" stroke-width="2" opacity="0.15"/>
                <line id="Line_147" data-name="Line 147" x1="18.631" transform="translate(491.451 456.216)" fill="none" stroke="#738ed6" stroke-linecap="round" stroke-linejoin="round" stroke-width="2" opacity="0.15"/>
                <g id="Group_8332" data-name="Group 8332" opacity="0.14">
                  <path id="Path_9443" data-name="Path 9443" d="M436.8,168.8a14.963,14.963,0,1,1,20.67-4.608A14.963,14.963,0,0,1,436.8,168.8Z" fill="none" stroke="#738ed6" stroke-linecap="round" stroke-linejoin="round" stroke-width="2"/>
                  <path id="Path_9444" data-name="Path 9444" d="M440.485,163.04a8.13,8.13,0,1,1,11.229-2.489,8.13,8.13,0,0,1-11.229,2.489Z" fill="none" stroke="#738ed6" stroke-linecap="round" stroke-linejoin="round" stroke-width="2"/>
                  <path id="Path_9445" data-name="Path 9445" d="M444.166,157.267a1.324,1.324,0,1,1,1.487,0A1.324,1.324,0,0,1,444.166,157.267Z" fill="none" stroke="#738ed6" stroke-linecap="round" stroke-linejoin="round" stroke-width="2"/>
                </g>
                <rect id="Rectangle_7691" data-name="Rectangle 7691" width="13.241" height="13.241" transform="translate(272.759 388.764) rotate(-49.94)" fill="none" stroke="#738ed6" stroke-linecap="round" stroke-linejoin="round" stroke-width="2" opacity="0.3"/>
                <g id="Group_8333" data-name="Group 8333" opacity="0.19">
                  <path id="Path_9446" data-name="Path 9446" d="M224.97,446.113a.821.821,0,0,1-.808.583l-3.972-.516a11.69,11.69,0,0,1-1.324,1.655c.41,1.218.9,2.344,1.4,3.509a.848.848,0,0,1,0,.569.755.755,0,0,1-.318.437c-.689.516-4.383,2.767-5.085,2.556a1.192,1.192,0,0,1-.49-.331l-2.238-3.046a12.65,12.65,0,0,1-2.119.238,27.424,27.424,0,0,1-1.708,3.694.781.781,0,0,1-.914.371l-4.621-1.324a.8.8,0,0,1-.569-.847l.53-3.972a12.21,12.21,0,0,1-1.655-1.324l-3.575,1.39a.848.848,0,0,1-.569,0,.807.807,0,0,1-.45-.384,25.676,25.676,0,0,1-2.423-4.476.808.808,0,0,1,0-.53.821.821,0,0,1,.3-.424c.98-.755,2.013-1.443,2.993-2.225a11.334,11.334,0,0,1-.252-2.291l-3.641-1.668a.781.781,0,0,1-.4-.914l1.324-4.621a.821.821,0,0,1,.768-.583l4.039.53a10.288,10.288,0,0,1,1.324-1.668c-.424-1.2-.9-2.357-1.4-3.509a.847.847,0,0,1,0-.569.8.8,0,0,1,.331-.424c.689-.53,4.37-2.767,5.071-2.569a1.02,1.02,0,0,1,.49.371l2.225,3.045a14.236,14.236,0,0,1,2.119-.252,27.265,27.265,0,0,1,1.708-3.681.781.781,0,0,1,.914-.371l4.621,1.324a.755.755,0,0,1,.556.834l-.5,3.972A12.087,12.087,0,0,1,218.3,430l3.588-1.324a.742.742,0,0,1,.556,0,.887.887,0,0,1,.463.358,27,27,0,0,1,2.41,4.529.728.728,0,0,1,0,.5.821.821,0,0,1-.3.424c-.98.755-2.013,1.443-2.993,2.225a12.26,12.26,0,0,1,.265,2.277l3.628,1.668a.808.808,0,0,1,.4.927Zm-13.758-12.248A5.535,5.535,0,1,0,215,440.71,5.535,5.535,0,0,0,211.212,433.865Z" fill="none" stroke="#738ed6" stroke-linecap="round" stroke-linejoin="round" stroke-width="2"/>
                </g>
                <g id="Group_8334" data-name="Group 8334" opacity="0.14">
                  <path id="Path_9447" data-name="Path 9447" d="M161.61,166.417l-7.587,16.128a2.667,2.667,0,0,1-4.78,0l-7.561-16.128a8.7,8.7,0,0,1-.689-3.721,10.672,10.672,0,1,1,21.332,0A8.885,8.885,0,0,1,161.61,166.417Z" fill="none" stroke="#738ed6" stroke-linecap="round" stroke-linejoin="round" stroke-width="2"/>
                  <path id="Path_9448" data-name="Path 9448" d="M156.128,163.464a4.5,4.5,0,1,1-1.314-3.192,4.515,4.515,0,0,1,1.314,3.192Z" fill="#c8e4ee"/>
                </g>
                <g id="Group_8335" data-name="Group 8335" opacity="0.14">
                  <path id="Path_9449" data-name="Path 9449" d="M585.994,269.739l-5.945,12.645a2.066,2.066,0,0,1-1.88,1.165,2.013,2.013,0,0,1-1.854-1.165l-5.972-12.645a6.9,6.9,0,0,1-.543-2.926,8.368,8.368,0,1,1,16.737,0A6.9,6.9,0,0,1,585.994,269.739Z" fill="none" stroke="#738ed6" stroke-linecap="round" stroke-linejoin="round" stroke-width="2"/>
                  <path id="Path_9450" data-name="Path 9450" d="M581.7,267.474a3.535,3.535,0,1,1-3.535-3.535,3.535,3.535,0,0,1,3.535,3.535Z" fill="#c8e4ee"/>
                </g>
                <g id="Group_8336" data-name="Group 8336">
                  <path id="Path_9451" data-name="Path 9451" d="M151.626,358.429l-.066-35.712-2.913,2.344-3.151-2.516h-.066l-3.1,2.489-3.112-2.476h-.146l-3.059,2.45-3.072-2.45h-.225l-3.006,2.436-3.045-2.423h-.3l-2.966,2.41-3.006-2.4h-.371l-2.94,2.37-2.966-2.357h-.45l-2.9,2.33-2.926-2.317h-.225l.026,19.862h-.026l.066,35.712,2.9-2.344,3.165,2.516h.053l3.1-2.489,3.125,2.476h.132l3.059-2.463,3.085,2.463h.212l3.019-2.436,3.046,2.423h.291l2.979-2.41,3.006,2.4h.371l2.94-2.37,2.966,2.357h.45l2.9-2.331,2.926,2.317h.225l-.04-19.862Z" fill="#e8eaff" stroke="#2d3079" stroke-linecap="round" stroke-linejoin="round" stroke-width="2"/>
                  <rect id="Rectangle_7692" data-name="Rectangle 7692" width="35.182" height="1.933" transform="matrix(1, -0.002, 0.002, 1, 112.079, 333.28)" fill="#2d3079"/>
                  <rect id="Rectangle_7693" data-name="Rectangle 7693" width="35.182" height="1.933" transform="translate(112.058 338.808) rotate(-0.1)" fill="#2d3079"/>
                  <rect id="Rectangle_7694" data-name="Rectangle 7694" width="35.182" height="1.933" transform="matrix(1, -0.002, 0.002, 1, 112.113, 344.337)" fill="#2d3079"/>
                  <rect id="Rectangle_7695" data-name="Rectangle 7695" width="35.182" height="1.933" transform="translate(112.091 349.864) rotate(-0.1)" fill="#2d3079"/>
                  <rect id="Rectangle_7696" data-name="Rectangle 7696" width="35.182" height="1.92" transform="matrix(1, -0.002, 0.002, 1, 112.076, 355.393)" fill="#2d3079"/>
                </g>
                <g id="surface1">
                  <path id="Path_9452" data-name="Path 9452" d="M264.508,487.531h11.427v38.532H264.508Z" fill="#e8eaff" stroke="#738ed6" stroke-miterlimit="10" stroke-width="2"/>
                  <path id="Path_9453" data-name="Path 9453" d="M299.32,487.531h11.427v38.532H299.32Z" fill="#e8eaff" stroke="#738ed6" stroke-miterlimit="10" stroke-width="2"/>
                  <path id="Path_9454" data-name="Path 9454" d="M334.131,487.531H345.6v38.532H334.171Z" fill="#e8eaff" stroke="#738ed6" stroke-miterlimit="10" stroke-width="2"/>
                  <path id="Path_9455" data-name="Path 9455" d="M353.768,468.742,305.027,443.12l-48.741,25.622Z" fill="#e8eaff"/>
                  <path id="Path_9456" data-name="Path 9456" d="M260.854,467.921h88.32a2.781,2.781,0,0,1,2.781,2.781v4.211a2.781,2.781,0,0,1-2.781,2.794h-88.32a2.781,2.781,0,0,1-2.781-2.794V470.7a2.781,2.781,0,0,1,2.781-2.781Z" fill="#e8eaff" stroke="#738ed6" stroke-miterlimit="10" stroke-width="2"/>
                  <g id="Group_8337" data-name="Group 8337">
                    <path id="Path_9457" data-name="Path 9457" d="M258.113,545.25a2.45,2.45,0,0,1-2.45-2.45v-4.118a5.3,5.3,0,0,1,2.648-4.595V528.58a4.979,4.979,0,0,1,3.708-4.793V489.8a4.965,4.965,0,0,1-3.708-4.78v-5.522a5.3,5.3,0,0,1-2.648-4.568v-3.761a2.383,2.383,0,0,1-1.536-1.231,2.45,2.45,0,0,1,1.02-3.31l48.741-25.6a2.41,2.41,0,0,1,1.139-.278,2.277,2.277,0,0,1,1.139.291l48.7,25.609a2.423,2.423,0,0,1,1.231,1.324,2.463,2.463,0,0,1,0,1.867,2.41,2.41,0,0,1-1.668,1.39v3.681a5.3,5.3,0,0,1-2.714,4.581v5.522a4.939,4.939,0,0,1-3.708,4.78v33.951a4.939,4.939,0,0,1,3.708,4.78v5.561a5.3,5.3,0,0,1,2.714,4.595V542.8a2.45,2.45,0,0,1-2.45,2.45Zm91.365-4.873V538.7a.384.384,0,0,0-.384-.358H260.92a.384.384,0,0,0-.384.371v1.668Zm-21.53-6.938v-4.86a4.979,4.979,0,0,1,3.708-4.793v-34a4.926,4.926,0,0,1-3.708-4.78v-4.86H316.864v4.873a4.939,4.939,0,0,1-3.708,4.78v33.99a4.939,4.939,0,0,1,3.708,4.78v4.873Zm-34.8,0v-4.86a4.939,4.939,0,0,1,3.708-4.793v-34a4.913,4.913,0,0,1-3.708-4.78v-4.86H282.04v4.873a4.965,4.965,0,0,1-3.721,4.793v33.977a4.966,4.966,0,0,1,3.721,4.78v4.873Zm49.933-9.8V489.928h-6.528v33.659Zm-69.623,0V489.928h-6.515v33.633Zm34.811,0V489.928h-6.5v33.62ZM260.854,470.4a.344.344,0,0,0-.331.331v4.224a.344.344,0,0,0,.331.331h88.32a.331.331,0,0,0,.331-.331v-4.224a.331.331,0,0,0-.331-.331Zm81.315-4.913-37.155-19.531-37.142,19.531Z" fill="#d9ddff"/>
                    <path id="Path_9458" data-name="Path 9458" d="M305.027,441.809a1.323,1.323,0,0,1,.649.159l48.741,25.622a1.385,1.385,0,0,1-.622,2.648,1.4,1.4,0,0,1-.556-.119,4.75,4.75,0,0,1,.066.609v4.184a4.171,4.171,0,0,1-2.714,3.906v6.2a3.893,3.893,0,0,1-3.708,3.88v35.751a3.88,3.88,0,0,1,3.708,3.88v6.21a4.211,4.211,0,0,1,2.714,3.972v4.118a1.324,1.324,0,0,1-1.39,1.39h-93.8a1.324,1.324,0,0,1-1.39-1.39v-4.118a4.2,4.2,0,0,1,2.648-3.972v-6.17a3.893,3.893,0,0,1,3.708-3.88V488.935a3.972,3.972,0,0,1-3.708-3.88v-6.2a4.158,4.158,0,0,1-2.648-3.906v-4.211a4.728,4.728,0,0,1,0-.609,1.246,1.246,0,0,1-.49.093,1.39,1.39,0,0,1-.649-2.648l48.741-25.6a1.323,1.323,0,0,1,.649-.159m-41.445,24.735h82.891l-41.445-21.8-41.445,21.8m-2.714,9.8h88.319a1.324,1.324,0,0,0,1.39-1.39v-4.237a1.324,1.324,0,0,0-1.39-1.39h-88.28a1.324,1.324,0,0,0-1.324,1.39v4.224a1.324,1.324,0,0,0,1.324,1.39M315.818,534.5H329.06v-5.919a3.893,3.893,0,0,1,3.708-3.88V488.882A3.893,3.893,0,0,1,329.06,485v-5.919H315.818v5.932a3.893,3.893,0,0,1-3.708,3.88v35.751a3.88,3.88,0,0,1,3.708,3.88v5.919m-34.811,0h13.241v-5.919a3.893,3.893,0,0,1,3.708-3.88V488.882a3.893,3.893,0,0,1-3.708-3.88v-5.919H281.007v5.932a3.893,3.893,0,0,1-3.721,3.88v35.751a3.893,3.893,0,0,1,3.721,3.88v5.919m54.5-9.8h8.633V488.9h-8.647v35.751m-34.811,0h8.633V488.9H300.71v35.751m-34.811,0h8.633V488.9H265.9v35.751m-6.369,16.79H350.6v-2.728a1.43,1.43,0,0,0-1.443-1.43H260.92a1.43,1.43,0,0,0-1.443,1.43v2.728m45.55-101.746a3.548,3.548,0,0,0-1.642.41l-48.728,25.582a3.509,3.509,0,0,0-1.47,4.74,3.469,3.469,0,0,0,1.417,1.443v3.045a6.329,6.329,0,0,0,2.648,5.164v4.939a6.065,6.065,0,0,0,3.708,5.548v32.468a6.025,6.025,0,0,0-3.708,5.535v4.939a6.369,6.369,0,0,0-2.648,5.177V542.8a3.509,3.509,0,0,0,3.509,3.509h93.854a3.509,3.509,0,0,0,3.509-3.509v-4.118a6.343,6.343,0,0,0-2.648-5.177V528.54a5.985,5.985,0,0,0-3.708-5.548V490.564a6.012,6.012,0,0,0,3.708-5.548v-4.939a6.316,6.316,0,0,0,2.648-5.151V471.96a3.509,3.509,0,0,0,1.642-4.37,3.456,3.456,0,0,0-1.761-1.907L306.669,440.1A3.548,3.548,0,0,0,305.027,439.691Zm-32.865,24.735,32.865-17.28,32.865,17.28Zm-10.593,7.031h86.863v2.767H261.569Zm56.355,9.746h8.964V485a5.985,5.985,0,0,0,3.708,5.548v32.481a6.025,6.025,0,0,0-3.708,5.535v3.813h-8.951v-3.8a5.985,5.985,0,0,0-3.708-5.548V490.564a6.012,6.012,0,0,0,3.708-5.548V481.2Zm-34.811,0h8.964V485a5.985,5.985,0,0,0,3.708,5.548v32.481a5.985,5.985,0,0,0-3.708,5.535v3.813h-8.964v-3.8a6.025,6.025,0,0,0-3.721-5.548V490.564a6.012,6.012,0,0,0,3.721-5.535V481.2Zm54.541,9.838h4.409v31.541h-4.409Zm-34.811,0H307.2v31.5h-4.37v-31.5Zm-34.811,0h4.4v31.514h-4.4Z" fill="#2d3079"/>
                  </g>
                </g>
              </g>
              <g id="PSB_Complete_Registered_Mark" data-name="PSB Complete Registered Mark" transform="translate(1287.119 1440.5)">
                <g id="PSB_Complete_Registered_Mark-2" data-name="PSB Complete Registered Mark" transform="translate(-124.029 -16.5)">
                  <g id="PSb59_Logo_-_Light_Background_1_" transform="translate(0)">
                    <g id="Group_3445_1_">
                      <g id="psblogowithheader_1_" transform="translate(0)">
                        <g id="Group_1_1_" transform="translate(34.649 11.166)">
                          <path id="Path_87_1_" d="M472.357,467.812a2.556,2.556,0,0,1-2.112-.973h-.11q.11.965.11,1.1v3.085H468.17V460.061h1.69l.294.992h.092a2.413,2.413,0,0,1,2.167-1.138,2.474,2.474,0,0,1,2.112,1.047,4.786,4.786,0,0,1,.771,2.9,5.659,5.659,0,0,1-.349,2.112,3.04,3.04,0,0,1-1.01,1.378A2.945,2.945,0,0,1,472.357,467.812Zm-.625-6.245a1.316,1.316,0,0,0-1.12.478,2.637,2.637,0,0,0-.365,1.561v.22a3.271,3.271,0,0,0,.365,1.764,1.267,1.267,0,0,0,1.155.533c.937,0,1.4-.772,1.4-2.3a3.224,3.224,0,0,0-.349-1.69A1.151,1.151,0,0,0,471.733,461.567Z" transform="translate(-468.17 -457.067)" fill="#2a2a2a"/>
                          <path id="Path_88_1_" d="M587.387,464.878a2.1,2.1,0,0,1-.808,1.781,4.059,4.059,0,0,1-2.442.608,7.744,7.744,0,0,1-1.414-.11,5.473,5.473,0,0,1-1.1-.331V465.1a7.7,7.7,0,0,0,1.3.459,5.045,5.045,0,0,0,1.286.182c.753,0,1.138-.22,1.138-.661a.6.6,0,0,0-.147-.4,1.88,1.88,0,0,0-.515-.349c-.239-.128-.569-.275-.973-.459a6.105,6.105,0,0,1-1.286-.679,1.866,1.866,0,0,1-.608-.716,2.335,2.335,0,0,1-.182-.992,1.825,1.825,0,0,1,.791-1.581,3.878,3.878,0,0,1,2.241-.551,6.274,6.274,0,0,1,2.681.608l-.625,1.506c-.385-.165-.735-.294-1.065-.4a3.134,3.134,0,0,0-1.01-.165c-.608,0-.918.165-.918.5a.551.551,0,0,0,.294.478,9.51,9.51,0,0,0,1.3.608,5.534,5.534,0,0,1,1.3.679,1.866,1.866,0,0,1,.608.716A3.434,3.434,0,0,1,587.387,464.878Z" transform="translate(-573.244 -456.54)" fill="#2a2a2a"/>
                          <path id="Path_89_1_" d="M686.076,424.227a2.474,2.474,0,0,1,2.112,1.047,4.8,4.8,0,0,1,.771,2.884,4.644,4.644,0,0,1-.791,2.919,2.525,2.525,0,0,1-2.149,1.028,2.556,2.556,0,0,1-2.112-.973h-.147l-.349.845H681.83v-10.6h2.075v2.461c0,.312-.018.808-.074,1.506h.074A2.4,2.4,0,0,1,686.076,424.227Zm-.68,1.654a1.315,1.315,0,0,0-1.12.478,2.636,2.636,0,0,0-.365,1.561v.22a3.271,3.271,0,0,0,.365,1.764,1.267,1.267,0,0,0,1.155.533,1.147,1.147,0,0,0,1.01-.588,3.137,3.137,0,0,0,.385-1.708,3.069,3.069,0,0,0-.385-1.69A1.191,1.191,0,0,0,685.4,425.88Z" transform="translate(-666.056 -421.38)" fill="#2a2a2a"/>
                          <path id="Path_90_1_" d="M803.605,431.977H801.53v-10.6h2.075Z" transform="translate(-776.919 -421.38)" fill="#2a2a2a"/>
                          <path id="Path_91_1_" d="M860.547,463.77a4.1,4.1,0,0,1-.973,2.9,3.545,3.545,0,0,1-2.737,1.047,3.858,3.858,0,0,1-1.928-.478,3.123,3.123,0,0,1-1.286-1.378,4.735,4.735,0,0,1-.441-2.094,4.1,4.1,0,0,1,.973-2.9,3.532,3.532,0,0,1,2.737-1.028,3.858,3.858,0,0,1,1.928.478,3.124,3.124,0,0,1,1.286,1.378A4.733,4.733,0,0,1,860.547,463.77Zm-5.271,0a3.279,3.279,0,0,0,.365,1.708,1.319,1.319,0,0,0,1.212.588,1.277,1.277,0,0,0,1.2-.568,3.273,3.273,0,0,0,.365-1.708,3.164,3.164,0,0,0-.365-1.69,1.344,1.344,0,0,0-1.212-.569,1.276,1.276,0,0,0-1.194.569A3.135,3.135,0,0,0,855.275,463.77Z" transform="translate(-824.751 -456.993)" fill="#2a2a2a"/>
                          <path id="Path_92_1_" d="M974.711,467.859l-.4-1.028h-.055a3.056,3.056,0,0,1-1.084.918,3.535,3.535,0,0,1-1.451.257,2.318,2.318,0,0,1-1.727-.625,2.392,2.392,0,0,1-.624-1.779,1.97,1.97,0,0,1,.845-1.781,5.224,5.224,0,0,1,2.554-.643l1.322-.036v-.331a1.042,1.042,0,0,0-.908-1.161,1.03,1.03,0,0,0-.286,0,5.416,5.416,0,0,0-2.149.551l-.679-1.4a6.216,6.216,0,0,1,2.919-.679,3.658,3.658,0,0,1,2.351.661,2.455,2.455,0,0,1,.827,2.038v5.07h-1.451Zm-.625-3.527-.808.018a2.509,2.509,0,0,0-1.338.331,1.023,1.023,0,0,0-.441.918c0,.588.331.882,1.01.882a1.626,1.626,0,0,0,1.155-.423,1.437,1.437,0,0,0,.441-1.1v-.625Z" transform="translate(-932.359 -457.261)" fill="#2a2a2a"/>
                          <path id="Path_93_1_" d="M1097.385,467.839h-2.075v-4.446a2.066,2.066,0,0,0-.294-1.231,1.081,1.081,0,0,0-.937-.4,1.417,1.417,0,0,0-1.268.588,3.615,3.615,0,0,0-.385,1.928v3.581h-2.076v-7.62h1.581l.275.973h.11a2.208,2.208,0,0,1,.955-.827,3.325,3.325,0,0,1,1.4-.275,2.686,2.686,0,0,1,2.021.716,2.888,2.888,0,0,1,.679,2.075v4.94Z" transform="translate(-1044.417 -457.241)" fill="#2a2a2a"/>
                          <path id="Path_94_1_" d="M1214.3,464.878a2.1,2.1,0,0,1-.808,1.781,4.059,4.059,0,0,1-2.442.608,7.744,7.744,0,0,1-1.414-.11,5.472,5.472,0,0,1-1.1-.331V465.1a7.7,7.7,0,0,0,1.3.459,5.045,5.045,0,0,0,1.286.182c.753,0,1.138-.22,1.138-.661a.6.6,0,0,0-.147-.4,1.877,1.877,0,0,0-.514-.349c-.239-.128-.569-.275-.973-.459a6.1,6.1,0,0,1-1.286-.679,1.867,1.867,0,0,1-.608-.716,2.332,2.332,0,0,1-.182-.992,1.825,1.825,0,0,1,.791-1.581,3.878,3.878,0,0,1,2.241-.551,6.275,6.275,0,0,1,2.681.608l-.625,1.506c-.385-.165-.735-.294-1.065-.4a3.134,3.134,0,0,0-1.01-.165c-.608,0-.918.165-.918.5a.551.551,0,0,0,.294.478,9.523,9.523,0,0,0,1.3.608,5.531,5.531,0,0,1,1.3.679,1.865,1.865,0,0,1,.608.716A3.409,3.409,0,0,1,1214.3,464.878Z" transform="translate(-1153.872 -456.54)" fill="#2a2a2a"/>
                          <path id="Path_95_1_" d="M1307.54,422.39c0-.679.385-1.01,1.138-1.01s1.138.331,1.138,1.01a1,1,0,0,1-.275.753,1.17,1.17,0,0,1-.844.275C1307.9,423.418,1307.54,423.07,1307.54,422.39Zm2.167,9.587h-2.075v-7.622h2.075Z" transform="translate(-1245.572 -421.38)" fill="#2a2a2a"/>
                          <path id="Path_96_1_" d="M1373.275,467.839H1371.2v-4.446a2.066,2.066,0,0,0-.294-1.231,1.08,1.08,0,0,0-.937-.4,1.417,1.417,0,0,0-1.268.588,3.614,3.614,0,0,0-.385,1.928v3.581h-2.076v-7.62h1.581l.275.973h.11a2.209,2.209,0,0,1,.955-.827,3.326,3.326,0,0,1,1.4-.275,2.685,2.685,0,0,1,2.021.716,2.887,2.887,0,0,1,.679,2.075v4.94Z" transform="translate(-1299.938 -457.241)" fill="#2a2a2a"/>
                        </g>
                        <g id="Group_2_1_" transform="translate(112.268 4.58)">
                          <path id="Path_97_1_" d="M1399.826,352.867a6.269,6.269,0,0,1,3.159.808,5.77,5.77,0,0,1,2.2,2.3,7.126,7.126,0,0,1,.791,3.434,6.622,6.622,0,0,1-2.057,5.234c-1.378,1.231-3.434,1.818-6.208,1.818a13.184,13.184,0,0,1-5.805-1.1v-4.5a14.479,14.479,0,0,0,2.737.918,11.771,11.771,0,0,0,2.626.365,3.811,3.811,0,0,0,2.351-.643,2.265,2.265,0,0,0,.827-1.911,2.2,2.2,0,0,0-.827-1.818,4.018,4.018,0,0,0-2.535-.661,9.37,9.37,0,0,0-2.791.478l-2.023-.989.774-10.726h11.573v4.573H1397.7l-.257,2.681a8.757,8.757,0,0,1,1.542-.22A6.864,6.864,0,0,1,1399.826,352.867Z" transform="translate(-1391.91 -345.657)" fill="#f90"/>
                          <path id="Path_98_1_" d="M1625.335,352.492q0,5.951-2.571,8.633c-1.708,1.781-4.463,2.664-8.228,2.664a21.305,21.305,0,0,1-2.829-.147v-4.354a13.083,13.083,0,0,0,2.388.22,7.367,7.367,0,0,0,4.537-1.212,4.866,4.866,0,0,0,1.745-3.838h-.165a5.3,5.3,0,0,1-1.064,1.451,3.574,3.574,0,0,1-1.286.679,6.305,6.305,0,0,1-1.911.239,5.114,5.114,0,0,1-4.132-1.764,7.3,7.3,0,0,1-1.488-4.866,7.1,7.1,0,0,1,1.928-5.291A7.2,7.2,0,0,1,1617.53,343a7.053,7.053,0,0,1,5.767,2.48C1624.656,347.129,1625.335,349.444,1625.335,352.492Zm-7.658-5.124a1.852,1.852,0,0,0-1.469.661,3.24,3.24,0,0,0-.569,2.094,3.178,3.178,0,0,0,.478,1.818,1.754,1.754,0,0,0,1.488.679,2.2,2.2,0,0,0,1.581-.661,2.136,2.136,0,0,0,.661-1.581,3.6,3.6,0,0,0-.625-2.128A1.813,1.813,0,0,0,1617.677,347.368Z" transform="translate(-1594.205 -342.986)" fill="#f90"/>
                        </g>
                        <g id="Group_3_1_" transform="translate(147.029 11.217)">
                          <path id="Path_99_1_" d="M1812.421,468.192h-2.075v-4.444a2.222,2.222,0,0,0-.275-1.231.964.964,0,0,0-.863-.4,1.264,1.264,0,0,0-1.156.588,3.829,3.829,0,0,0-.365,1.928v3.581h-2.078v-7.622h1.581l.275.973h.11a2.136,2.136,0,0,1,.882-.827,2.8,2.8,0,0,1,1.322-.294,2.367,2.367,0,0,1,2.312,1.12h.182a2.19,2.19,0,0,1,.9-.827,2.933,2.933,0,0,1,1.338-.294,2.677,2.677,0,0,1,1.965.661,2.932,2.932,0,0,1,.661,2.128v4.977h-2.094v-4.444a2.221,2.221,0,0,0-.275-1.231.963.963,0,0,0-.864-.4,1.285,1.285,0,0,0-1.138.551,3.04,3.04,0,0,0-.385,1.727v3.784Z" transform="translate(-1805.61 -457.595)" fill="#2a2a2a"/>
                          <path class="move" id="Path_100_1_" d="M1989.94,423c0-.679.385-1.01,1.138-1.01s1.138.331,1.138,1.01a1,1,0,0,1-.275.753,1.17,1.17,0,0,1-.845.275C1990.325,424.028,1989.94,423.679,1989.94,423Zm2.167,9.587h-2.075v-7.622h2.075Z" transform="translate(-1976.331 -421.99)" fill="#2a2a2a"/>
                          <path id="Path_101_1_" d="M2055.925,468.458h-2.075v-4.446a2.065,2.065,0,0,0-.294-1.231,1.081,1.081,0,0,0-.937-.4,1.417,1.417,0,0,0-1.268.588,3.615,3.615,0,0,0-.385,1.928v3.581h-2.076v-7.62h1.582l.275.973h.11a2.208,2.208,0,0,1,.955-.827,3.325,3.325,0,0,1,1.4-.274,2.686,2.686,0,0,1,2.021.716,2.888,2.888,0,0,1,.679,2.075v4.94Z" transform="translate(-2030.929 -457.861)" fill="#2a2a2a"/>
                          <path id="Path_102_1_" d="M2177.854,469.69l-.275-.973h-.112a2.228,2.228,0,0,1-.954.827,3.163,3.163,0,0,1-1.4.294,2.66,2.66,0,0,1-2.021-.716,2.883,2.883,0,0,1-.679-2.075v-4.977h2.094v4.444a2.066,2.066,0,0,0,.294,1.231,1.082,1.082,0,0,0,.937.4,1.415,1.415,0,0,0,1.267-.588,3.613,3.613,0,0,0,.385-1.928V462.05h2.081v7.622h-1.617Z" transform="translate(-2145.328 -459.092)" fill="#2a2a2a"/>
                          <path id="Path_103_1_" d="M2290.956,447.836a4.2,4.2,0,0,0,1.3-.239v1.543a4.555,4.555,0,0,1-1.911.349,2.346,2.346,0,0,1-1.818-.625,2.713,2.713,0,0,1-.569-1.891V443.3h-.992v-.884l1.138-.7.608-1.616h1.322v1.616h2.128v1.561h-2.128v3.674a.842.842,0,0,0,.257.661A.881.881,0,0,0,2290.956,447.836Z" transform="translate(-2251.433 -438.763)" fill="#2a2a2a"/>
                          <path id="Path_104_1_" d="M2377.081,466.085a3.949,3.949,0,0,1-2.885-1.01,3.824,3.824,0,0,1-1.028-2.884,4.182,4.182,0,0,1,.955-2.957,3.43,3.43,0,0,1,6.06,2.406v1.01h-4.922a1.959,1.959,0,0,0,.533,1.378,1.86,1.86,0,0,0,1.377.5,5.96,5.96,0,0,0,1.3-.147,5.734,5.734,0,0,0,1.285-.459v1.616a5.09,5.09,0,0,1-1.156.4A7.1,7.1,0,0,1,2377.081,466.085Zm-.294-6.428a1.3,1.3,0,0,0-1.029.423,2.025,2.025,0,0,0-.423,1.194h2.919a1.7,1.7,0,0,0-.4-1.194A1.41,1.41,0,0,0,2376.787,459.657Z" transform="translate(-2331.258 -455.341)" fill="#2a2a2a"/>
                          <path id="Path_105_1_" d="M2490.767,465.479a2.1,2.1,0,0,1-.808,1.781,4.059,4.059,0,0,1-2.442.608,7.758,7.758,0,0,1-1.414-.11,5.526,5.526,0,0,1-1.1-.331V465.7a7.7,7.7,0,0,0,1.3.459,5.041,5.041,0,0,0,1.285.182c.753,0,1.138-.22,1.138-.661a.6.6,0,0,0-.147-.4,1.877,1.877,0,0,0-.514-.349c-.239-.128-.569-.275-.973-.459a6.1,6.1,0,0,1-1.286-.679,1.866,1.866,0,0,1-.608-.716,2.319,2.319,0,0,1-.182-.992,1.824,1.824,0,0,1,.791-1.581,3.883,3.883,0,0,1,2.241-.551,6.276,6.276,0,0,1,2.681.608l-.625,1.506c-.385-.165-.734-.294-1.065-.4a3.136,3.136,0,0,0-1.01-.165c-.608,0-.918.165-.918.5a.549.549,0,0,0,.294.478,9.407,9.407,0,0,0,1.3.608,5.533,5.533,0,0,1,1.3.679,1.866,1.866,0,0,1,.608.716A2.423,2.423,0,0,1,2490.767,465.479Z" transform="translate(-2434.843 -457.141)" fill="#2a2a2a"/>
                          <path id="Path_106_1_" d="M2581.252,537.825a1.152,1.152,0,0,1,.312-.863,1.5,1.5,0,0,1,1.781,0,1.158,1.158,0,0,1,.312.863,1.133,1.133,0,0,1-.312.845,1.4,1.4,0,0,1-1.764,0A1.146,1.146,0,0,1,2581.252,537.825Z" transform="translate(-2523.987 -528.201)" fill="#2a2a2a"/>
                          <path id="Path_107_1_" d="M2636.22,468.1q-3.558,0-3.563-3.912a4.206,4.206,0,0,1,.973-2.975,3.563,3.563,0,0,1,2.774-1.028,5.23,5.23,0,0,1,2.372.515l-.608,1.616c-.33-.128-.625-.239-.918-.331a2.711,2.711,0,0,0-.845-.128c-1.083,0-1.616.771-1.616,2.3,0,1.488.533,2.241,1.616,2.241a3.469,3.469,0,0,0,1.1-.165,4.4,4.4,0,0,0,1.028-.5v1.781a3.026,3.026,0,0,1-1.01.441A6.109,6.109,0,0,1,2636.22,468.1Z" transform="translate(-2571.59 -457.353)" fill="#2a2a2a"/>
                          <path id="Path_108_1_" d="M2737.566,464.38a4.1,4.1,0,0,1-.973,2.9,3.545,3.545,0,0,1-2.737,1.047,3.858,3.858,0,0,1-1.928-.478,3.124,3.124,0,0,1-1.286-1.378,4.736,4.736,0,0,1-.441-2.094,4.1,4.1,0,0,1,.973-2.9,3.532,3.532,0,0,1,2.737-1.028,3.857,3.857,0,0,1,1.928.478,3.122,3.122,0,0,1,1.286,1.378A4.5,4.5,0,0,1,2737.566,464.38Zm-5.271,0a3.283,3.283,0,0,0,.365,1.708,1.319,1.319,0,0,0,1.212.588,1.276,1.276,0,0,0,1.2-.568,3.273,3.273,0,0,0,.365-1.708,3.165,3.165,0,0,0-.365-1.69,1.344,1.344,0,0,0-1.212-.569,1.276,1.276,0,0,0-1.194.569A3.142,3.142,0,0,0,2732.3,464.38Z" transform="translate(-2661.935 -457.603)" fill="#2a2a2a"/>
                          <path id="Path_109_1_" d="M2860.251,468.192h-2.076v-4.444a2.229,2.229,0,0,0-.274-1.231.964.964,0,0,0-.864-.4,1.263,1.263,0,0,0-1.156.588,3.827,3.827,0,0,0-.365,1.928v3.581h-2.077v-7.622h1.581l.275.973h.11a2.142,2.142,0,0,1,.882-.827,2.8,2.8,0,0,1,1.322-.294,2.367,2.367,0,0,1,2.312,1.12h.183a2.194,2.194,0,0,1,.9-.827,2.934,2.934,0,0,1,1.338-.294,2.676,2.676,0,0,1,1.965.661,2.929,2.929,0,0,1,.662,2.128v4.977h-2.094v-4.444a2.215,2.215,0,0,0-.275-1.231.962.962,0,0,0-.863-.4,1.285,1.285,0,0,0-1.138.551,3.033,3.033,0,0,0-.386,1.727v3.784Z" transform="translate(-2776.082 -457.595)" fill="#2a2a2a"/>
                        </g>
                      </g>
                    </g>
                  </g>
                </g>
              </g>
            </g>
          </svg>
          